<svg width="556" height="518" viewBox="0 0 556 518" fill="none" xmlns="http://www.w3.org/2000/svg">
<path d="M0 63C0 28.2061 28.2061 0 63 0H556V455C556 489.794 527.794 518 493 518H0V63Z" fill="#999999"/>
<path d="M151.41 355.645L151.12 355.935C147.205 347.38 144.74 337.665 143.725 326.935C144.74 337.52 147.495 347.09 151.41 355.645Z" fill="white"/>
<path d="M244.5 230.51C263.559 230.51 279.01 215.059 279.01 196C279.01 176.941 263.559 161.49 244.5 161.49C225.441 161.49 209.99 176.941 209.99 196C209.99 215.059 225.441 230.51 244.5 230.51Z" fill="white"/>
<path d="M348.755 109H227.245C174.465 109 143 140.465 143 193.245V314.755C143 330.56 145.755 344.335 151.12 355.935C163.59 383.485 190.27 399 227.245 399H348.755C401.535 399 433 367.535 433 314.755V281.55V193.245C433 140.465 401.535 109 348.755 109ZM409.365 261.25C398.055 251.535 379.785 251.535 368.475 261.25L308.155 313.015C296.845 322.73 278.575 322.73 267.265 313.015L262.335 308.955C252.04 299.965 235.655 299.095 224.055 306.925L169.825 343.32C166.635 335.2 164.75 325.775 164.75 314.755V193.245C164.75 152.355 186.355 130.75 227.245 130.75H348.755C389.645 130.75 411.25 152.355 411.25 193.245V262.845L409.365 261.25Z" fill="white"/>
</svg>
