<svg width="40" height="47" viewBox="0 0 40 47" fill="none" xmlns="http://www.w3.org/2000/svg">
<path d="M19.5231 46.2019C16.0004 43.4371 12.7352 40.406 9.76157 37.1404C5.29914 32.2362 2.45125e-06 24.9326 2.45125e-06 17.9729C-0.00193285 14.4185 1.14213 10.9435 3.2874 7.98761C5.43267 5.03173 8.48273 2.72786 12.0515 1.36759C15.6204 0.00730545 19.5475 -0.348243 23.3361 0.345938C27.1246 1.04012 30.6041 2.75282 33.3344 5.2673C35.1521 6.93244 36.5929 8.91278 37.5734 11.0937C38.5538 13.2746 39.0545 15.6128 39.0463 17.9729C39.0463 24.9326 33.7471 32.2362 29.2847 37.1404C26.3111 40.406 23.0458 43.437 19.5231 46.2019ZM19.5231 10.2741C17.3041 10.2741 15.1759 11.0852 13.6067 12.529C12.0376 13.9728 11.1561 15.9311 11.1561 17.9729C11.1561 20.0148 12.0376 21.973 13.6067 23.4168C15.1759 24.8606 17.3041 25.6717 19.5231 25.6717C21.7422 25.6717 23.8704 24.8606 25.4396 23.4168C27.0087 21.973 27.8902 20.0148 27.8902 17.9729C27.8902 15.9311 27.0087 13.9728 25.4396 12.529C23.8704 11.0852 21.7422 10.2741 19.5231 10.2741Z" fill="#B8B8B8"/>
</svg>
