<svg width="19" height="23" viewBox="0 0 19 23" fill="none" xmlns="http://www.w3.org/2000/svg">
<path d="M9.47651 22.4263C11.1864 21.0842 12.7714 19.613 14.2148 18.0279C16.3808 15.6474 18.953 12.1022 18.953 8.724C18.9539 6.99871 18.3986 5.31194 17.3573 3.87717C16.316 2.44239 14.8355 1.3241 13.1032 0.663822C11.3709 0.00354605 9.46467 -0.169036 7.62573 0.167917C5.7868 0.504871 4.09783 1.33621 2.77258 2.55673C1.89024 3.36499 1.19088 4.32624 0.714975 5.38485C0.239069 6.44346 -0.00393677 7.57841 2.67029e-05 8.724C2.67029e-05 12.1022 2.57222 15.6474 4.73827 18.0279C6.18167 19.613 7.76661 21.0842 9.47651 22.4263ZM9.47651 4.98702C10.5537 4.98702 11.5867 5.38074 12.3483 6.08156C13.11 6.78238 13.5379 7.73289 13.5379 8.724C13.5379 9.71511 13.11 10.6656 12.3483 11.3665C11.5867 12.0673 10.5537 12.461 9.47651 12.461C8.39938 12.461 7.36635 12.0673 6.6047 11.3665C5.84305 10.6656 5.41516 9.71511 5.41516 8.724C5.41516 7.73289 5.84305 6.78238 6.6047 6.08156C7.36635 5.38074 8.39938 4.98702 9.47651 4.98702Z" fill="white"/>
</svg>
