<svg width="17" height="24" viewBox="0 0 17 24" fill="none" xmlns="http://www.w3.org/2000/svg">
<path d="M3.06736 0.845441L4.3227 0.444108C5.49986 0.0684408 6.75753 0.676274 7.26153 1.86394L8.26486 4.22994C8.7012 5.26011 8.45853 6.47227 7.6652 7.22594L5.45436 9.32361C5.59086 10.5789 6.0132 11.8144 6.7202 13.0301C7.39158 14.2063 8.29213 15.2357 9.36853 16.0576L12.0239 15.1709C13.0295 14.8361 14.1262 15.2223 14.7422 16.1288L16.1807 18.2404C16.8982 19.2951 16.7687 20.7488 15.8785 21.6424L14.9254 22.6003C13.9757 23.5534 12.6189 23.8999 11.3647 23.5079C8.40136 22.5839 5.67953 19.8411 3.19453 15.2794C0.706031 10.7108 -0.172469 6.83277 0.560198 3.65011C0.868198 2.31077 1.82136 1.24327 3.06736 0.845441Z" fill="white"/>
</svg>
